<mxfile host="app.diagrams.net" modified="2023-04-11T23:29:31.994Z" agent="Mozilla/5.0 (Windows NT 10.0; Win64; x64) AppleWebKit/537.36 (KHTML, like Gecko) Chrome/111.0.0.0 Safari/537.36" etag="P2teHhVr_q0Y9jSnoU6c" version="21.1.6" type="github">
  <diagram name="Página-1" id="OKbmLqGyjOnGrivR2I40">
    <mxGraphModel dx="677" dy="1541" grid="1" gridSize="10" guides="1" tooltips="1" connect="1" arrows="1" fold="1" page="1" pageScale="1" pageWidth="827" pageHeight="1169" math="0" shadow="0">
      <root>
        <mxCell id="0" />
        <mxCell id="1" parent="0" />
        <mxCell id="MAyMO6A-bNdMm_IBALHe-37" value="" style="edgeStyle=orthogonalEdgeStyle;rounded=0;orthogonalLoop=1;jettySize=auto;html=1;entryX=0.042;entryY=0.753;entryDx=0;entryDy=0;entryPerimeter=0;" edge="1" parent="1" source="MAyMO6A-bNdMm_IBALHe-5" target="MAyMO6A-bNdMm_IBALHe-31">
          <mxGeometry relative="1" as="geometry">
            <Array as="points">
              <mxPoint x="544" y="20" />
            </Array>
          </mxGeometry>
        </mxCell>
        <mxCell id="MAyMO6A-bNdMm_IBALHe-39" value="" style="edgeStyle=orthogonalEdgeStyle;rounded=0;orthogonalLoop=1;jettySize=auto;html=1;exitX=0.5;exitY=0;exitDx=0;exitDy=0;exitPerimeter=0;" edge="1" parent="1" source="MAyMO6A-bNdMm_IBALHe-5" target="MAyMO6A-bNdMm_IBALHe-38">
          <mxGeometry relative="1" as="geometry">
            <Array as="points">
              <mxPoint x="445" y="-30" />
              <mxPoint x="450" y="-30" />
              <mxPoint x="450" y="-110" />
            </Array>
          </mxGeometry>
        </mxCell>
        <mxCell id="MAyMO6A-bNdMm_IBALHe-41" value="" style="edgeStyle=orthogonalEdgeStyle;rounded=0;orthogonalLoop=1;jettySize=auto;html=1;" edge="1" parent="1" source="MAyMO6A-bNdMm_IBALHe-5" target="MAyMO6A-bNdMm_IBALHe-40">
          <mxGeometry relative="1" as="geometry">
            <mxPoint x="470" y="50" as="sourcePoint" />
            <Array as="points">
              <mxPoint x="590" y="50" />
              <mxPoint x="590" y="40" />
            </Array>
          </mxGeometry>
        </mxCell>
        <mxCell id="MAyMO6A-bNdMm_IBALHe-49" value="" style="edgeStyle=orthogonalEdgeStyle;rounded=0;orthogonalLoop=1;jettySize=auto;html=1;" edge="1" parent="1" source="MAyMO6A-bNdMm_IBALHe-5" target="MAyMO6A-bNdMm_IBALHe-34">
          <mxGeometry relative="1" as="geometry" />
        </mxCell>
        <mxCell id="MAyMO6A-bNdMm_IBALHe-5" value="Funcionário" style="shape=umlActor;verticalLabelPosition=bottom;verticalAlign=top;html=1;outlineConnect=0;" vertex="1" parent="1">
          <mxGeometry x="430" y="10" width="30" height="60" as="geometry" />
        </mxCell>
        <mxCell id="MAyMO6A-bNdMm_IBALHe-31" value="Cadastrar Sócio" style="ellipse;whiteSpace=wrap;html=1;" vertex="1" parent="1">
          <mxGeometry x="540" y="-60" width="90" height="60" as="geometry" />
        </mxCell>
        <mxCell id="MAyMO6A-bNdMm_IBALHe-34" value="Realizar Manutenção dos DVDs" style="ellipse;whiteSpace=wrap;html=1;" vertex="1" parent="1">
          <mxGeometry x="280" y="-100" width="100" height="60" as="geometry" />
        </mxCell>
        <mxCell id="MAyMO6A-bNdMm_IBALHe-38" value="Verificar Pendências" style="ellipse;whiteSpace=wrap;html=1;" vertex="1" parent="1">
          <mxGeometry x="510" y="-140" width="90" height="60" as="geometry" />
        </mxCell>
        <mxCell id="MAyMO6A-bNdMm_IBALHe-40" value="Registrar Locação" style="ellipse;whiteSpace=wrap;html=1;" vertex="1" parent="1">
          <mxGeometry x="620" y="10" width="100" height="60" as="geometry" />
        </mxCell>
        <mxCell id="MAyMO6A-bNdMm_IBALHe-42" value="" style="endArrow=classic;html=1;rounded=0;entryX=0.991;entryY=0.65;entryDx=0;entryDy=0;entryPerimeter=0;" edge="1" parent="1" source="MAyMO6A-bNdMm_IBALHe-40" target="MAyMO6A-bNdMm_IBALHe-38">
          <mxGeometry width="50" height="50" relative="1" as="geometry">
            <mxPoint x="600" y="120" as="sourcePoint" />
            <mxPoint x="650" y="70" as="targetPoint" />
            <Array as="points">
              <mxPoint x="640" y="-70" />
            </Array>
          </mxGeometry>
        </mxCell>
        <mxCell id="MAyMO6A-bNdMm_IBALHe-43" value="" style="endArrow=classic;html=1;rounded=0;entryX=0.777;entryY=0.971;entryDx=0;entryDy=0;entryPerimeter=0;" edge="1" parent="1" source="MAyMO6A-bNdMm_IBALHe-40" target="MAyMO6A-bNdMm_IBALHe-31">
          <mxGeometry width="50" height="50" relative="1" as="geometry">
            <mxPoint x="620" y="10" as="sourcePoint" />
            <mxPoint x="670" y="-40" as="targetPoint" />
          </mxGeometry>
        </mxCell>
        <mxCell id="MAyMO6A-bNdMm_IBALHe-47" value="" style="edgeStyle=orthogonalEdgeStyle;rounded=0;orthogonalLoop=1;jettySize=auto;html=1;" edge="1" parent="1" source="MAyMO6A-bNdMm_IBALHe-44" target="MAyMO6A-bNdMm_IBALHe-40">
          <mxGeometry relative="1" as="geometry" />
        </mxCell>
        <mxCell id="MAyMO6A-bNdMm_IBALHe-44" value="Cancelar Locação" style="ellipse;whiteSpace=wrap;html=1;" vertex="1" parent="1">
          <mxGeometry x="630" y="130" width="100" height="60" as="geometry" />
        </mxCell>
        <mxCell id="MAyMO6A-bNdMm_IBALHe-48" value="" style="endArrow=classic;html=1;rounded=0;exitX=1;exitY=1;exitDx=0;exitDy=0;exitPerimeter=0;" edge="1" parent="1" source="MAyMO6A-bNdMm_IBALHe-5" target="MAyMO6A-bNdMm_IBALHe-44">
          <mxGeometry width="50" height="50" relative="1" as="geometry">
            <mxPoint x="510" y="80" as="sourcePoint" />
            <mxPoint x="580" y="90" as="targetPoint" />
          </mxGeometry>
        </mxCell>
      </root>
    </mxGraphModel>
  </diagram>
</mxfile>
